<mxfile host="app.diagrams.net" agent="Mozilla/5.0 (Windows NT 10.0; Win64; x64) AppleWebKit/537.36 (KHTML, like Gecko) Chrome/132.0.0.0 Safari/537.36 OPR/117.0.0.0" version="26.1.3">
  <diagram name="Page-1" id="3nDueZsEviXtk1KdZRw2">
    <mxGraphModel dx="3470" dy="1395" grid="1" gridSize="10" guides="1" tooltips="1" connect="1" arrows="1" fold="1" page="1" pageScale="1" pageWidth="850" pageHeight="1100" math="0" shadow="0">
      <root>
        <mxCell id="0" />
        <mxCell id="1" parent="0" />
        <mxCell id="WW0Aqr3g7VBlTiyXQAqH-1" value="Repository" style="rounded=0;whiteSpace=wrap;html=1;" vertex="1" parent="1">
          <mxGeometry x="-62.5" y="130" width="90" height="50" as="geometry" />
        </mxCell>
        <mxCell id="WW0Aqr3g7VBlTiyXQAqH-2" value="Name" style="ellipse;whiteSpace=wrap;html=1;" vertex="1" parent="1">
          <mxGeometry x="-80" width="80" height="40" as="geometry" />
        </mxCell>
        <mxCell id="WW0Aqr3g7VBlTiyXQAqH-3" value="ID" style="ellipse;whiteSpace=wrap;html=1;" vertex="1" parent="1">
          <mxGeometry x="-20" y="20" width="70" height="40" as="geometry" />
        </mxCell>
        <mxCell id="WW0Aqr3g7VBlTiyXQAqH-4" value="Description" style="ellipse;whiteSpace=wrap;html=1;" vertex="1" parent="1">
          <mxGeometry x="27.5" y="50" width="90" height="40" as="geometry" />
        </mxCell>
        <mxCell id="WW0Aqr3g7VBlTiyXQAqH-5" value="Project files" style="ellipse;whiteSpace=wrap;html=1;" vertex="1" parent="1">
          <mxGeometry x="-137.5" y="30" width="80" height="40" as="geometry" />
        </mxCell>
        <mxCell id="WW0Aqr3g7VBlTiyXQAqH-6" value="" style="endArrow=none;html=1;rounded=0;exitX=0.5;exitY=1;exitDx=0;exitDy=0;entryX=0.5;entryY=0;entryDx=0;entryDy=0;" edge="1" parent="1" source="WW0Aqr3g7VBlTiyXQAqH-5" target="WW0Aqr3g7VBlTiyXQAqH-1">
          <mxGeometry width="50" height="50" relative="1" as="geometry">
            <mxPoint x="130" y="310" as="sourcePoint" />
            <mxPoint x="180" y="260" as="targetPoint" />
          </mxGeometry>
        </mxCell>
        <mxCell id="WW0Aqr3g7VBlTiyXQAqH-7" value="" style="endArrow=none;html=1;rounded=0;exitX=0.5;exitY=1;exitDx=0;exitDy=0;entryX=0.5;entryY=0;entryDx=0;entryDy=0;" edge="1" parent="1" source="WW0Aqr3g7VBlTiyXQAqH-2" target="WW0Aqr3g7VBlTiyXQAqH-1">
          <mxGeometry width="50" height="50" relative="1" as="geometry">
            <mxPoint x="130" y="310" as="sourcePoint" />
            <mxPoint x="180" y="260" as="targetPoint" />
          </mxGeometry>
        </mxCell>
        <mxCell id="WW0Aqr3g7VBlTiyXQAqH-9" value="" style="endArrow=none;html=1;rounded=0;entryX=0.5;entryY=1;entryDx=0;entryDy=0;exitX=0.5;exitY=0;exitDx=0;exitDy=0;" edge="1" parent="1" source="WW0Aqr3g7VBlTiyXQAqH-1" target="WW0Aqr3g7VBlTiyXQAqH-4">
          <mxGeometry width="50" height="50" relative="1" as="geometry">
            <mxPoint x="130" y="310" as="sourcePoint" />
            <mxPoint x="230" y="170" as="targetPoint" />
          </mxGeometry>
        </mxCell>
        <mxCell id="WW0Aqr3g7VBlTiyXQAqH-10" value="" style="endArrow=none;html=1;rounded=0;entryX=0.5;entryY=1;entryDx=0;entryDy=0;exitX=0.5;exitY=0;exitDx=0;exitDy=0;" edge="1" parent="1" source="WW0Aqr3g7VBlTiyXQAqH-1" target="WW0Aqr3g7VBlTiyXQAqH-3">
          <mxGeometry width="50" height="50" relative="1" as="geometry">
            <mxPoint x="130" y="310" as="sourcePoint" />
            <mxPoint x="180" y="260" as="targetPoint" />
          </mxGeometry>
        </mxCell>
        <mxCell id="WW0Aqr3g7VBlTiyXQAqH-11" value="Commits&lt;div&gt;1&lt;/div&gt;" style="rhombus;whiteSpace=wrap;html=1;" vertex="1" parent="1">
          <mxGeometry x="-57.5" y="230" width="80" height="80" as="geometry" />
        </mxCell>
        <mxCell id="WW0Aqr3g7VBlTiyXQAqH-13" value="" style="endArrow=none;html=1;rounded=0;exitX=0.5;exitY=1;exitDx=0;exitDy=0;entryX=0.5;entryY=0;entryDx=0;entryDy=0;fontSize=13;" edge="1" parent="1" source="WW0Aqr3g7VBlTiyXQAqH-1" target="WW0Aqr3g7VBlTiyXQAqH-11">
          <mxGeometry width="50" height="50" relative="1" as="geometry">
            <mxPoint x="130" y="310" as="sourcePoint" />
            <mxPoint x="180" y="260" as="targetPoint" />
          </mxGeometry>
        </mxCell>
        <mxCell id="WW0Aqr3g7VBlTiyXQAqH-77" value="1:M" style="edgeLabel;html=1;align=center;verticalAlign=middle;resizable=0;points=[];" vertex="1" connectable="0" parent="WW0Aqr3g7VBlTiyXQAqH-13">
          <mxGeometry x="-0.2282" y="-4" relative="1" as="geometry">
            <mxPoint x="4" y="11" as="offset" />
          </mxGeometry>
        </mxCell>
        <mxCell id="WW0Aqr3g7VBlTiyXQAqH-15" value="Commit" style="rounded=0;whiteSpace=wrap;html=1;" vertex="1" parent="1">
          <mxGeometry x="-290" y="250" width="110" height="40" as="geometry" />
        </mxCell>
        <mxCell id="WW0Aqr3g7VBlTiyXQAqH-16" value="Tags" style="ellipse;whiteSpace=wrap;html=1;" vertex="1" parent="1">
          <mxGeometry x="-245" y="340" width="80" height="40" as="geometry" />
        </mxCell>
        <mxCell id="WW0Aqr3g7VBlTiyXQAqH-17" value="Comments" style="ellipse;whiteSpace=wrap;html=1;" vertex="1" parent="1">
          <mxGeometry x="-180" y="370" width="80" height="40" as="geometry" />
        </mxCell>
        <mxCell id="WW0Aqr3g7VBlTiyXQAqH-18" value="Logs" style="ellipse;whiteSpace=wrap;html=1;" vertex="1" parent="1">
          <mxGeometry x="-300" y="380" width="70" height="30" as="geometry" />
        </mxCell>
        <mxCell id="WW0Aqr3g7VBlTiyXQAqH-19" value="Code Files&amp;nbsp;" style="ellipse;whiteSpace=wrap;html=1;" vertex="1" parent="1">
          <mxGeometry x="-137.5" y="330" width="80" height="40" as="geometry" />
        </mxCell>
        <mxCell id="WW0Aqr3g7VBlTiyXQAqH-20" value="Subfolders" style="ellipse;whiteSpace=wrap;html=1;" vertex="1" parent="1">
          <mxGeometry x="-350" y="340" width="90" height="40" as="geometry" />
        </mxCell>
        <mxCell id="WW0Aqr3g7VBlTiyXQAqH-21" value="" style="endArrow=none;html=1;rounded=0;exitX=0.63;exitY=-0.004;exitDx=0;exitDy=0;exitPerimeter=0;entryX=0.5;entryY=1;entryDx=0;entryDy=0;" edge="1" parent="1" source="WW0Aqr3g7VBlTiyXQAqH-20" target="WW0Aqr3g7VBlTiyXQAqH-15">
          <mxGeometry width="50" height="50" relative="1" as="geometry">
            <mxPoint x="130" y="510" as="sourcePoint" />
            <mxPoint x="180" y="460" as="targetPoint" />
          </mxGeometry>
        </mxCell>
        <mxCell id="WW0Aqr3g7VBlTiyXQAqH-22" value="" style="endArrow=none;html=1;rounded=0;exitX=0.5;exitY=0;exitDx=0;exitDy=0;entryX=0.5;entryY=1;entryDx=0;entryDy=0;" edge="1" parent="1" source="WW0Aqr3g7VBlTiyXQAqH-18" target="WW0Aqr3g7VBlTiyXQAqH-15">
          <mxGeometry width="50" height="50" relative="1" as="geometry">
            <mxPoint x="130" y="510" as="sourcePoint" />
            <mxPoint x="80" y="530" as="targetPoint" />
          </mxGeometry>
        </mxCell>
        <mxCell id="WW0Aqr3g7VBlTiyXQAqH-23" value="" style="endArrow=none;html=1;rounded=0;exitX=0.5;exitY=0;exitDx=0;exitDy=0;entryX=0.5;entryY=1;entryDx=0;entryDy=0;" edge="1" parent="1" source="WW0Aqr3g7VBlTiyXQAqH-16" target="WW0Aqr3g7VBlTiyXQAqH-15">
          <mxGeometry width="50" height="50" relative="1" as="geometry">
            <mxPoint x="130" y="510" as="sourcePoint" />
            <mxPoint x="90" y="520" as="targetPoint" />
          </mxGeometry>
        </mxCell>
        <mxCell id="WW0Aqr3g7VBlTiyXQAqH-24" value="" style="endArrow=none;html=1;rounded=0;exitX=0.5;exitY=0;exitDx=0;exitDy=0;entryX=0.5;entryY=1;entryDx=0;entryDy=0;" edge="1" parent="1" source="WW0Aqr3g7VBlTiyXQAqH-17" target="WW0Aqr3g7VBlTiyXQAqH-15">
          <mxGeometry width="50" height="50" relative="1" as="geometry">
            <mxPoint x="130" y="510" as="sourcePoint" />
            <mxPoint x="90" y="520" as="targetPoint" />
          </mxGeometry>
        </mxCell>
        <mxCell id="WW0Aqr3g7VBlTiyXQAqH-25" value="" style="endArrow=none;html=1;rounded=0;exitX=0.5;exitY=0;exitDx=0;exitDy=0;entryX=0.5;entryY=1;entryDx=0;entryDy=0;" edge="1" parent="1" source="WW0Aqr3g7VBlTiyXQAqH-19" target="WW0Aqr3g7VBlTiyXQAqH-15">
          <mxGeometry width="50" height="50" relative="1" as="geometry">
            <mxPoint x="130" y="510" as="sourcePoint" />
            <mxPoint x="-50" y="400" as="targetPoint" />
          </mxGeometry>
        </mxCell>
        <mxCell id="WW0Aqr3g7VBlTiyXQAqH-26" value="" style="endArrow=none;html=1;rounded=0;exitX=0;exitY=0.5;exitDx=0;exitDy=0;" edge="1" parent="1" source="WW0Aqr3g7VBlTiyXQAqH-11" target="WW0Aqr3g7VBlTiyXQAqH-15">
          <mxGeometry width="50" height="50" relative="1" as="geometry">
            <mxPoint x="460" y="320" as="sourcePoint" />
            <mxPoint x="510" y="270" as="targetPoint" />
          </mxGeometry>
        </mxCell>
        <mxCell id="WW0Aqr3g7VBlTiyXQAqH-79" value="1" style="edgeLabel;html=1;align=center;verticalAlign=middle;resizable=0;points=[];" vertex="1" connectable="0" parent="WW0Aqr3g7VBlTiyXQAqH-26">
          <mxGeometry x="-0.0689" y="-1" relative="1" as="geometry">
            <mxPoint x="-1" as="offset" />
          </mxGeometry>
        </mxCell>
        <mxCell id="WW0Aqr3g7VBlTiyXQAqH-27" value="User" style="rounded=0;whiteSpace=wrap;html=1;" vertex="1" parent="1">
          <mxGeometry x="-67.5" y="850" width="100" height="40" as="geometry" />
        </mxCell>
        <mxCell id="WW0Aqr3g7VBlTiyXQAqH-28" value="Login" style="ellipse;whiteSpace=wrap;html=1;" vertex="1" parent="1">
          <mxGeometry x="-110" y="940" width="80" height="40" as="geometry" />
        </mxCell>
        <mxCell id="WW0Aqr3g7VBlTiyXQAqH-29" value="Password" style="ellipse;whiteSpace=wrap;html=1;" vertex="1" parent="1">
          <mxGeometry x="30" y="930" width="80" height="40" as="geometry" />
        </mxCell>
        <mxCell id="WW0Aqr3g7VBlTiyXQAqH-30" value="Name" style="ellipse;whiteSpace=wrap;html=1;" vertex="1" parent="1">
          <mxGeometry x="-20" y="940" width="80" height="40" as="geometry" />
        </mxCell>
        <mxCell id="WW0Aqr3g7VBlTiyXQAqH-31" value="ID" style="ellipse;whiteSpace=wrap;html=1;" vertex="1" parent="1">
          <mxGeometry x="-55" y="970" width="80" height="40" as="geometry" />
        </mxCell>
        <mxCell id="WW0Aqr3g7VBlTiyXQAqH-32" value="Profile" style="ellipse;whiteSpace=wrap;html=1;" vertex="1" parent="1">
          <mxGeometry x="-185" y="940" width="75" height="40" as="geometry" />
        </mxCell>
        <mxCell id="WW0Aqr3g7VBlTiyXQAqH-33" value="" style="endArrow=none;html=1;rounded=0;exitX=0.63;exitY=-0.004;exitDx=0;exitDy=0;exitPerimeter=0;entryX=0.5;entryY=1;entryDx=0;entryDy=0;" edge="1" parent="1" source="WW0Aqr3g7VBlTiyXQAqH-32" target="WW0Aqr3g7VBlTiyXQAqH-27">
          <mxGeometry width="50" height="50" relative="1" as="geometry">
            <mxPoint x="140" y="520" as="sourcePoint" />
            <mxPoint x="190" y="470" as="targetPoint" />
          </mxGeometry>
        </mxCell>
        <mxCell id="WW0Aqr3g7VBlTiyXQAqH-34" value="" style="endArrow=none;html=1;rounded=0;exitX=0.5;exitY=0;exitDx=0;exitDy=0;entryX=0.5;entryY=1;entryDx=0;entryDy=0;" edge="1" parent="1" source="WW0Aqr3g7VBlTiyXQAqH-30" target="WW0Aqr3g7VBlTiyXQAqH-27">
          <mxGeometry width="50" height="50" relative="1" as="geometry">
            <mxPoint x="140" y="520" as="sourcePoint" />
            <mxPoint x="90" y="540" as="targetPoint" />
          </mxGeometry>
        </mxCell>
        <mxCell id="WW0Aqr3g7VBlTiyXQAqH-35" value="" style="endArrow=none;html=1;rounded=0;exitX=0.5;exitY=0;exitDx=0;exitDy=0;entryX=0.5;entryY=1;entryDx=0;entryDy=0;" edge="1" parent="1" source="WW0Aqr3g7VBlTiyXQAqH-28" target="WW0Aqr3g7VBlTiyXQAqH-27">
          <mxGeometry width="50" height="50" relative="1" as="geometry">
            <mxPoint x="140" y="520" as="sourcePoint" />
            <mxPoint x="100" y="530" as="targetPoint" />
          </mxGeometry>
        </mxCell>
        <mxCell id="WW0Aqr3g7VBlTiyXQAqH-36" value="" style="endArrow=none;html=1;rounded=0;exitX=0.5;exitY=0;exitDx=0;exitDy=0;entryX=0.5;entryY=1;entryDx=0;entryDy=0;" edge="1" parent="1" source="WW0Aqr3g7VBlTiyXQAqH-29" target="WW0Aqr3g7VBlTiyXQAqH-27">
          <mxGeometry width="50" height="50" relative="1" as="geometry">
            <mxPoint x="140" y="520" as="sourcePoint" />
            <mxPoint x="100" y="530" as="targetPoint" />
          </mxGeometry>
        </mxCell>
        <mxCell id="WW0Aqr3g7VBlTiyXQAqH-37" value="" style="endArrow=none;html=1;rounded=0;exitX=0.5;exitY=0;exitDx=0;exitDy=0;entryX=0.5;entryY=1;entryDx=0;entryDy=0;" edge="1" parent="1" source="WW0Aqr3g7VBlTiyXQAqH-31" target="WW0Aqr3g7VBlTiyXQAqH-27">
          <mxGeometry width="50" height="50" relative="1" as="geometry">
            <mxPoint x="140" y="520" as="sourcePoint" />
            <mxPoint x="-40" y="410" as="targetPoint" />
          </mxGeometry>
        </mxCell>
        <mxCell id="WW0Aqr3g7VBlTiyXQAqH-38" value="" style="endArrow=none;html=1;rounded=0;exitX=0.5;exitY=1;exitDx=0;exitDy=0;entryX=0.5;entryY=0;entryDx=0;entryDy=0;" edge="1" parent="1" source="WW0Aqr3g7VBlTiyXQAqH-11" target="WW0Aqr3g7VBlTiyXQAqH-44">
          <mxGeometry width="50" height="50" relative="1" as="geometry">
            <mxPoint x="-30" y="420" as="sourcePoint" />
            <mxPoint x="131" y="287" as="targetPoint" />
          </mxGeometry>
        </mxCell>
        <mxCell id="WW0Aqr3g7VBlTiyXQAqH-80" value="1:M" style="edgeLabel;html=1;align=center;verticalAlign=middle;resizable=0;points=[];" vertex="1" connectable="0" parent="WW0Aqr3g7VBlTiyXQAqH-38">
          <mxGeometry x="-0.0599" y="-2" relative="1" as="geometry">
            <mxPoint as="offset" />
          </mxGeometry>
        </mxCell>
        <mxCell id="WW0Aqr3g7VBlTiyXQAqH-42" value="OWNS" style="rhombus;whiteSpace=wrap;html=1;" vertex="1" parent="1">
          <mxGeometry x="-57.5" y="670" width="80" height="80" as="geometry" />
        </mxCell>
        <mxCell id="WW0Aqr3g7VBlTiyXQAqH-43" value="" style="endArrow=none;html=1;rounded=0;exitX=0.5;exitY=0;exitDx=0;exitDy=0;" edge="1" parent="1">
          <mxGeometry width="50" height="50" relative="1" as="geometry">
            <mxPoint x="-16" y="850" as="sourcePoint" />
            <mxPoint x="-17.798245614035295" y="749.2982456140351" as="targetPoint" />
          </mxGeometry>
        </mxCell>
        <mxCell id="WW0Aqr3g7VBlTiyXQAqH-82" value="1:M" style="edgeLabel;html=1;align=center;verticalAlign=middle;resizable=0;points=[];" vertex="1" connectable="0" parent="WW0Aqr3g7VBlTiyXQAqH-43">
          <mxGeometry x="0.148" y="2" relative="1" as="geometry">
            <mxPoint as="offset" />
          </mxGeometry>
        </mxCell>
        <mxCell id="WW0Aqr3g7VBlTiyXQAqH-44" value="Contributes" style="rhombus;whiteSpace=wrap;html=1;" vertex="1" parent="1">
          <mxGeometry x="-65" y="520" width="95" height="90" as="geometry" />
        </mxCell>
        <mxCell id="WW0Aqr3g7VBlTiyXQAqH-46" value="" style="endArrow=none;html=1;rounded=0;exitX=0.5;exitY=1;exitDx=0;exitDy=0;entryX=0.5;entryY=0;entryDx=0;entryDy=0;" edge="1" parent="1" source="WW0Aqr3g7VBlTiyXQAqH-44" target="WW0Aqr3g7VBlTiyXQAqH-42">
          <mxGeometry width="50" height="50" relative="1" as="geometry">
            <mxPoint x="-30" y="400" as="sourcePoint" />
            <mxPoint x="20" y="350" as="targetPoint" />
          </mxGeometry>
        </mxCell>
        <mxCell id="WW0Aqr3g7VBlTiyXQAqH-47" value="1:M" style="edgeLabel;html=1;align=center;verticalAlign=middle;resizable=0;points=[];" vertex="1" connectable="0" parent="WW0Aqr3g7VBlTiyXQAqH-46">
          <mxGeometry x="0.1755" relative="1" as="geometry">
            <mxPoint as="offset" />
          </mxGeometry>
        </mxCell>
        <mxCell id="WW0Aqr3g7VBlTiyXQAqH-48" value="Pull" style="rhombus;whiteSpace=wrap;html=1;" vertex="1" parent="1">
          <mxGeometry x="170" y="230" width="80" height="80" as="geometry" />
        </mxCell>
        <mxCell id="WW0Aqr3g7VBlTiyXQAqH-50" value="" style="endArrow=none;html=1;rounded=0;exitX=1;exitY=0.5;exitDx=0;exitDy=0;entryX=0;entryY=0.5;entryDx=0;entryDy=0;" edge="1" parent="1" source="WW0Aqr3g7VBlTiyXQAqH-11" target="WW0Aqr3g7VBlTiyXQAqH-48">
          <mxGeometry width="50" height="50" relative="1" as="geometry">
            <mxPoint x="-30" y="400" as="sourcePoint" />
            <mxPoint x="20" y="350" as="targetPoint" />
          </mxGeometry>
        </mxCell>
        <mxCell id="WW0Aqr3g7VBlTiyXQAqH-78" value="1" style="edgeLabel;html=1;align=center;verticalAlign=middle;resizable=0;points=[];" vertex="1" connectable="0" parent="WW0Aqr3g7VBlTiyXQAqH-50">
          <mxGeometry x="-0.0664" y="4" relative="1" as="geometry">
            <mxPoint x="-1" y="4" as="offset" />
          </mxGeometry>
        </mxCell>
        <mxCell id="WW0Aqr3g7VBlTiyXQAqH-51" value="Code Editior" style="rounded=0;whiteSpace=wrap;html=1;" vertex="1" parent="1">
          <mxGeometry x="160" y="400" width="100" height="40" as="geometry" />
        </mxCell>
        <mxCell id="WW0Aqr3g7VBlTiyXQAqH-53" value="" style="endArrow=none;html=1;rounded=0;exitX=0.5;exitY=1;exitDx=0;exitDy=0;entryX=0.5;entryY=0;entryDx=0;entryDy=0;" edge="1" parent="1" source="WW0Aqr3g7VBlTiyXQAqH-48" target="WW0Aqr3g7VBlTiyXQAqH-51">
          <mxGeometry width="50" height="50" relative="1" as="geometry">
            <mxPoint x="-30" y="400" as="sourcePoint" />
            <mxPoint x="245" y="370" as="targetPoint" />
          </mxGeometry>
        </mxCell>
        <mxCell id="WW0Aqr3g7VBlTiyXQAqH-81" value="1:M" style="edgeLabel;html=1;align=center;verticalAlign=middle;resizable=0;points=[];" vertex="1" connectable="0" parent="WW0Aqr3g7VBlTiyXQAqH-53">
          <mxGeometry x="0.0431" y="1" relative="1" as="geometry">
            <mxPoint as="offset" />
          </mxGeometry>
        </mxCell>
        <mxCell id="WW0Aqr3g7VBlTiyXQAqH-58" value="CodeFile Data" style="ellipse;whiteSpace=wrap;html=1;" vertex="1" parent="1">
          <mxGeometry x="150" y="480" width="90" height="50" as="geometry" />
        </mxCell>
        <mxCell id="WW0Aqr3g7VBlTiyXQAqH-59" value="Name" style="ellipse;whiteSpace=wrap;html=1;" vertex="1" parent="1">
          <mxGeometry x="300" y="490" width="90" height="50" as="geometry" />
        </mxCell>
        <mxCell id="WW0Aqr3g7VBlTiyXQAqH-60" value="tags" style="ellipse;whiteSpace=wrap;html=1;" vertex="1" parent="1">
          <mxGeometry x="220" y="530" width="90" height="50" as="geometry" />
        </mxCell>
        <mxCell id="WW0Aqr3g7VBlTiyXQAqH-61" value="Comment" style="ellipse;whiteSpace=wrap;html=1;" vertex="1" parent="1">
          <mxGeometry x="60" y="470" width="90" height="50" as="geometry" />
        </mxCell>
        <mxCell id="WW0Aqr3g7VBlTiyXQAqH-62" value="" style="endArrow=none;html=1;rounded=0;entryX=0.5;entryY=1;entryDx=0;entryDy=0;exitX=0.5;exitY=0;exitDx=0;exitDy=0;" edge="1" parent="1" source="WW0Aqr3g7VBlTiyXQAqH-61" target="WW0Aqr3g7VBlTiyXQAqH-51">
          <mxGeometry width="50" height="50" relative="1" as="geometry">
            <mxPoint x="-30" y="400" as="sourcePoint" />
            <mxPoint x="20" y="350" as="targetPoint" />
          </mxGeometry>
        </mxCell>
        <mxCell id="WW0Aqr3g7VBlTiyXQAqH-63" value="" style="endArrow=none;html=1;rounded=0;entryX=0.5;entryY=1;entryDx=0;entryDy=0;exitX=0.5;exitY=0;exitDx=0;exitDy=0;" edge="1" parent="1" source="WW0Aqr3g7VBlTiyXQAqH-58" target="WW0Aqr3g7VBlTiyXQAqH-51">
          <mxGeometry width="50" height="50" relative="1" as="geometry">
            <mxPoint x="-30" y="400" as="sourcePoint" />
            <mxPoint x="20" y="350" as="targetPoint" />
          </mxGeometry>
        </mxCell>
        <mxCell id="WW0Aqr3g7VBlTiyXQAqH-64" value="" style="endArrow=none;html=1;rounded=0;exitX=0.5;exitY=1;exitDx=0;exitDy=0;entryX=0.5;entryY=0;entryDx=0;entryDy=0;" edge="1" parent="1" source="WW0Aqr3g7VBlTiyXQAqH-51" target="WW0Aqr3g7VBlTiyXQAqH-60">
          <mxGeometry width="50" height="50" relative="1" as="geometry">
            <mxPoint x="-30" y="680" as="sourcePoint" />
            <mxPoint x="20" y="630" as="targetPoint" />
          </mxGeometry>
        </mxCell>
        <mxCell id="WW0Aqr3g7VBlTiyXQAqH-65" value="" style="endArrow=none;html=1;rounded=0;entryX=0.5;entryY=1;entryDx=0;entryDy=0;exitX=0.5;exitY=0;exitDx=0;exitDy=0;" edge="1" parent="1" source="WW0Aqr3g7VBlTiyXQAqH-59" target="WW0Aqr3g7VBlTiyXQAqH-51">
          <mxGeometry width="50" height="50" relative="1" as="geometry">
            <mxPoint x="-30" y="680" as="sourcePoint" />
            <mxPoint x="20" y="630" as="targetPoint" />
          </mxGeometry>
        </mxCell>
        <mxCell id="WW0Aqr3g7VBlTiyXQAqH-66" value="Id" style="ellipse;whiteSpace=wrap;html=1;" vertex="1" parent="1">
          <mxGeometry x="300" y="550" width="90" height="50" as="geometry" />
        </mxCell>
        <mxCell id="WW0Aqr3g7VBlTiyXQAqH-67" value="" style="endArrow=none;html=1;rounded=0;exitX=0.5;exitY=1;exitDx=0;exitDy=0;entryX=0.376;entryY=0.069;entryDx=0;entryDy=0;entryPerimeter=0;" edge="1" parent="1" source="WW0Aqr3g7VBlTiyXQAqH-51" target="WW0Aqr3g7VBlTiyXQAqH-66">
          <mxGeometry width="50" height="50" relative="1" as="geometry">
            <mxPoint x="-30" y="540" as="sourcePoint" />
            <mxPoint x="20" y="490" as="targetPoint" />
          </mxGeometry>
        </mxCell>
      </root>
    </mxGraphModel>
  </diagram>
</mxfile>
